<?xml version="1.0" encoding="UTF-8" standalone="no"?>
<svg
   xmlns:dc="http://purl.org/dc/elements/1.1/"
   xmlns:cc="http://creativecommons.org/ns#"
   xmlns:rdf="http://www.w3.org/1999/02/22-rdf-syntax-ns#"
   xmlns:svg="http://www.w3.org/2000/svg"
   xmlns="http://www.w3.org/2000/svg"
   xmlns:sodipodi="http://sodipodi.sourceforge.net/DTD/sodipodi-0.dtd"
   xmlns:inkscape="http://www.inkscape.org/namespaces/inkscape"
   width="1920"
   height="1080"
   viewBox="0 0 507.99999 285.75001"
   version="1.1"
   id="svg8"
   inkscape:version="1.0.1 (3bc2e813f5, 2020-09-07)"
   sodipodi:docname="2014.svg">
  <defs
     id="defs2">
    <clipPath
       clipPathUnits="userSpaceOnUse"
       id="clipPath863">
      <rect
         style="fill:#0000ff;fill-rule:evenodd;stroke-width:0.247542"
         id="rect865"
         width="254"
         height="285.75"
         x="0"
         y="0" />
    </clipPath>
    <clipPath
       clipPathUnits="userSpaceOnUse"
       id="clipPath996">
      <rect
         style="fill:#0082ff;fill-opacity:1;stroke-width:0.264583"
         id="rect998"
         width="254"
         height="285.75"
         x="3.0079641e-14"
         y="0"
         rx="3.2072263"
         ry="3.2072263" />
    </clipPath>
  </defs>
  <sodipodi:namedview
     id="base"
     pagecolor="#ffffff"
     bordercolor="#666666"
     borderopacity="1.0"
     inkscape:pageopacity="0.0"
     inkscape:pageshadow="2"
     inkscape:zoom="0.35"
     inkscape:cx="1035.7575"
     inkscape:cy="476.95346"
     inkscape:document-units="mm"
     inkscape:current-layer="layer1"
     inkscape:document-rotation="0"
     showgrid="false"
     units="px"
     inkscape:window-width="1920"
     inkscape:window-height="1057"
     inkscape:window-x="-8"
     inkscape:window-y="-8"
     inkscape:window-maximized="1"
     inkscape:pagecheckerboard="true" />
  <metadata
     id="metadata5">
    <rdf:RDF>
      <cc:Work
         rdf:about="">
        <dc:format>image/svg+xml</dc:format>
        <dc:type
           rdf:resource="http://purl.org/dc/dcmitype/StillImage" />
        <dc:title></dc:title>
      </cc:Work>
    </rdf:RDF>
  </metadata>
  <g
     inkscape:label="Layer 1"
     inkscape:groupmode="layer"
     id="layer1">
    <g
       id="2014-pertwee-tunnel">
      <path
         id="path972"
         style="display:inline;fill:#5d1114;fill-opacity:1;fill-rule:evenodd;stroke-width:0.999999"
         d="M 960,546.19531 896.77344,609.42188 960,672.64844 l 63.2266,-63.22656 z"
         transform="scale(0.26458333)" />
      <path
         id="rect1000"
         style="fill:#902227;fill-opacity:1;fill-rule:evenodd;stroke-width:0.999999"
         d="m 1116.0859,139.09766 -66.1328,66.13281 404.1895,404.19141 L 960,1103.5645 v 0.094 l 66.0859,66.0859 527.2559,-527.25582 -33.0664,-33.0664 33.0664,-33.06641 z M 960,1103.6582 465.85742,609.51562 870.04688,205.32422 803.91406,139.19141 366.6582,576.44922 399.72461,609.51562 366.6582,642.58203 893.91406,1169.8379 960,1103.752 Z m 0,-727.78906 v 0.0937 l -200.48633,200.48633 33.06641,33.0664 -33.06641,33.06641 L 960,843.06641 v -0.0937 l 200.4863,-200.48438 -33.0664,-33.0664 33.0664,-33.06641 z m 0,132.26563 101.2871,101.28711 L 960,710.70898 v 0.0937 L 858.71289,609.51562 960,508.22852 Z"
         transform="scale(0.26458333)" />
      <path
         id="path1010"
         style="fill:#5d1114;fill-opacity:1;fill-rule:evenodd;stroke-width:0.999999"
         d="M 667.54297,31.011719 280.79492,417.76172 346.92773,483.89453 733.67578,97.144531 Z m 584.91403,0 -66.1328,66.132812 386.7481,386.749999 66.1328,-66.13281 z M 960,192.11328 608.82617,543.28906 542.69336,609.42188 608.82617,675.55469 960,1026.7285 l 351.1738,-351.17381 66.1328,-66.13281 -66.1328,-66.13282 z m 0,132.26563 285.041,285.04297 L 960,894.46289 674.95898,609.42188 Z m -771.66602,215.60937 -66.13281,66.13477 563.6211,563.62105 66.13281,-66.1328 z m 1543.33202,0 -563.6211,563.62302 66.1328,66.1328 563.6211,-563.62105 z"
         transform="scale(0.26458333)" />
      <path
         id="rect1016"
         style="fill:#902227;fill-opacity:1;fill-rule:evenodd;stroke-width:0.999999"
         d="m 238.45508,516.93555 v 595.05075 h 93.52539 V 516.93555 Z m 1349.56442,0 v 595.05075 h 93.5254 V 516.93555 Z"
         transform="scale(0.26458333)" />
    </g>
  </g>
</svg>
