<?xml version="1.0" encoding="UTF-8" standalone="no"?>
<svg
   xmlns:dc="http://purl.org/dc/elements/1.1/"
   xmlns:cc="http://creativecommons.org/ns#"
   xmlns:rdf="http://www.w3.org/1999/02/22-rdf-syntax-ns#"
   xmlns:svg="http://www.w3.org/2000/svg"
   xmlns="http://www.w3.org/2000/svg"
   xmlns:sodipodi="http://sodipodi.sourceforge.net/DTD/sodipodi-0.dtd"
   xmlns:inkscape="http://www.inkscape.org/namespaces/inkscape"
   width="1920"
   height="1080"
   viewBox="0 0 507.99999 285.75001"
   version="1.1"
   id="svg8"
   inkscape:version="1.0.1 (3bc2e813f5, 2020-09-07)"
   sodipodi:docname="2014.svg">
  <defs
     id="defs2">
    <clipPath
       clipPathUnits="userSpaceOnUse"
       id="clipPath863">
      <rect
         style="fill:#0000ff;fill-rule:evenodd;stroke-width:0.247542"
         id="rect865"
         width="254"
         height="285.75"
         x="0"
         y="0" />
    </clipPath>
    <clipPath
       clipPathUnits="userSpaceOnUse"
       id="clipPath996">
      <rect
         style="fill:#0082ff;fill-opacity:1;stroke-width:0.264583"
         id="rect998"
         width="254"
         height="285.75"
         x="3.0079641e-14"
         y="0"
         rx="3.2072263"
         ry="3.2072263" />
    </clipPath>
  </defs>
  <sodipodi:namedview
     id="base"
     pagecolor="#ffffff"
     bordercolor="#666666"
     borderopacity="1.0"
     inkscape:pageopacity="0.0"
     inkscape:pageshadow="2"
     inkscape:zoom="0.35"
     inkscape:cx="1036.9726"
     inkscape:cy="859.09796"
     inkscape:document-units="mm"
     inkscape:current-layer="layer1"
     inkscape:document-rotation="0"
     showgrid="false"
     units="px"
     inkscape:window-width="1920"
     inkscape:window-height="1057"
     inkscape:window-x="-8"
     inkscape:window-y="-8"
     inkscape:window-maximized="1"
     inkscape:pagecheckerboard="true" />
  <metadata
     id="metadata5">
    <rdf:RDF>
      <cc:Work
         rdf:about="">
        <dc:format>image/svg+xml</dc:format>
        <dc:type
           rdf:resource="http://purl.org/dc/dcmitype/StillImage" />
        <dc:title></dc:title>
      </cc:Work>
    </rdf:RDF>
  </metadata>
  <g
     inkscape:label="Layer 1"
     inkscape:groupmode="layer"
     id="layer1">
    <g
       id="2014-light-lines">
      <g
         id="g2657"
         transform="rotate(15,-309.54715,2009.4883)">
        <path
           id="rect2539"
           style="fill:#902227;fill-opacity:1;stroke:none;stroke-width:1.26751;stroke-miterlimit:4;stroke-dasharray:none"
           d="m -391.89453,-480.75195 v 30.07617 h 59.76953 v -30.07617 z m 1251.42383,0 v 30.07617 h 59.76758 v -30.07617 z"
           transform="matrix(0.26458333,0,0,0.26458333,-368.90476,266.09524)" />
        <path
           id="rect2541"
           style="fill:#f3d300;fill-opacity:1;stroke:none;stroke-width:1.12293;stroke-miterlimit:4;stroke-dasharray:none"
           d="m -321.78711,-484.98242 v 38.53515 h 51.60352 v -38.53515 z m 1119.375,0 v 38.53515 h 51.60352 v -38.53515 z"
           transform="matrix(0.26458333,0,0,0.26458333,-368.90476,266.09524)" />
        <path
           id="rect2545"
           style="fill:#4c9022;fill-opacity:1;stroke:none;stroke-width:1.12293;stroke-miterlimit:4;stroke-dasharray:none"
           d="m -260.56055,-487.70703 v 43.98633 h 118.5586 v -43.98633 z m 929.96485,0 v 43.98633 h 118.56054 v -43.98633 z"
           transform="matrix(0.26458333,0,0,0.26458333,-368.90476,266.09524)" />
        <path
           id="rect2549"
           style="fill:#224390;fill-opacity:1;stroke:none;stroke-width:0.903171;stroke-miterlimit:4;stroke-dasharray:none"
           d="m -133.48242,-491.63281 v 51.83789 H 3.4628906 v -51.83789 z m 657.42187,0 v 51.83789 h 136.94532 v -51.83789 z"
           transform="matrix(0.26458333,0,0,0.26458333,-368.90476,266.09524)" />
        <path
           id="rect2553"
           style="fill:#542290;fill-opacity:1;stroke:none;stroke-width:1.05382;stroke-miterlimit:4;stroke-dasharray:none"
           d="m 13.085938,-499.25195 v 67.07617 H 157.17383 v -67.07617 z m 357.142582,0 v 67.07617 h 144.08789 v -67.07617 z"
           transform="matrix(0.26458333,0,0,0.26458333,-368.90476,266.09524)" />
        <rect
           style="fill:#ffffff;fill-opacity:1;stroke:none;stroke-width:0.411244;stroke-miterlimit:4;stroke-dasharray:none"
           id="rect2555"
           width="38.364582"
           height="38.364582"
           x="-318.31601"
           y="123.69271" />
      </g>
      <g
         id="g2671"
         transform="rotate(15,264.41419,2477.7303)">
        <path
           id="path2659"
           style="fill:#902227;fill-opacity:1;stroke:none;stroke-width:1.26751;stroke-miterlimit:4;stroke-dasharray:none"
           d="m -391.89453,-480.75195 v 30.07617 h 59.76953 v -30.07617 z m 1251.42383,0 v 30.07617 h 59.76758 v -30.07617 z"
           transform="matrix(0.26458333,0,0,0.26458333,-368.90476,266.09524)" />
        <path
           id="path2661"
           style="fill:#f3d300;fill-opacity:1;stroke:none;stroke-width:1.12293;stroke-miterlimit:4;stroke-dasharray:none"
           d="m -321.78711,-484.98242 v 38.53515 h 51.60352 v -38.53515 z m 1119.375,0 v 38.53515 h 51.60352 v -38.53515 z"
           transform="matrix(0.26458333,0,0,0.26458333,-368.90476,266.09524)" />
        <path
           id="path2663"
           style="fill:#4c9022;fill-opacity:1;stroke:none;stroke-width:1.12293;stroke-miterlimit:4;stroke-dasharray:none"
           d="m -260.56055,-487.70703 v 43.98633 h 118.5586 v -43.98633 z m 929.96485,0 v 43.98633 h 118.56054 v -43.98633 z"
           transform="matrix(0.26458333,0,0,0.26458333,-368.90476,266.09524)" />
        <path
           id="path2665"
           style="fill:#224390;fill-opacity:1;stroke:none;stroke-width:0.903171;stroke-miterlimit:4;stroke-dasharray:none"
           d="m -133.48242,-491.63281 v 51.83789 H 3.4628906 v -51.83789 z m 657.42187,0 v 51.83789 h 136.94532 v -51.83789 z"
           transform="matrix(0.26458333,0,0,0.26458333,-368.90476,266.09524)" />
        <path
           id="path2667"
           style="fill:#542290;fill-opacity:1;stroke:none;stroke-width:1.05382;stroke-miterlimit:4;stroke-dasharray:none"
           d="m 13.085938,-499.25195 v 67.07617 H 157.17383 v -67.07617 z m 357.142582,0 v 67.07617 h 144.08789 v -67.07617 z"
           transform="matrix(0.26458333,0,0,0.26458333,-368.90476,266.09524)" />
        <rect
           style="fill:#ffffff;fill-opacity:1;stroke:none;stroke-width:0.411244;stroke-miterlimit:4;stroke-dasharray:none"
           id="rect2669"
           width="38.364582"
           height="38.364582"
           x="-318.31601"
           y="123.69271" />
      </g>
    </g>
  </g>
</svg>
