<?xml version="1.0" encoding="UTF-8" standalone="no"?>
<svg
   xmlns:dc="http://purl.org/dc/elements/1.1/"
   xmlns:cc="http://creativecommons.org/ns#"
   xmlns:rdf="http://www.w3.org/1999/02/22-rdf-syntax-ns#"
   xmlns:svg="http://www.w3.org/2000/svg"
   xmlns="http://www.w3.org/2000/svg"
   xmlns:xlink="http://www.w3.org/1999/xlink"
   xmlns:sodipodi="http://sodipodi.sourceforge.net/DTD/sodipodi-0.dtd"
   xmlns:inkscape="http://www.inkscape.org/namespaces/inkscape"
   width="1920"
   height="1080"
   viewBox="0 0 507.99999 285.75001"
   version="1.1"
   id="svg8"
   inkscape:version="1.0.1 (3bc2e813f5, 2020-09-07)"
   sodipodi:docname="2014.svg">
  <defs
     id="defs2">
    <clipPath
       clipPathUnits="userSpaceOnUse"
       id="clipPath863">
      <rect
         style="fill:#0000ff;fill-rule:evenodd;stroke-width:0.247542"
         id="rect865"
         width="254"
         height="285.75"
         x="0"
         y="0" />
    </clipPath>
    <clipPath
       clipPathUnits="userSpaceOnUse"
       id="clipPath996">
      <rect
         style="fill:#0082ff;fill-opacity:1;stroke-width:0.264583"
         id="rect998"
         width="254"
         height="285.75"
         x="3.0079641e-14"
         y="0"
         rx="3.2072263"
         ry="3.2072263" />
    </clipPath>
  </defs>
  <sodipodi:namedview
     id="base"
     pagecolor="#ffffff"
     bordercolor="#666666"
     borderopacity="1.0"
     inkscape:pageopacity="0.0"
     inkscape:pageshadow="2"
     inkscape:zoom="0.35"
     inkscape:cx="1075.7575"
     inkscape:cy="925.52488"
     inkscape:document-units="mm"
     inkscape:current-layer="layer1"
     inkscape:document-rotation="0"
     showgrid="false"
     units="px"
     inkscape:window-width="1920"
     inkscape:window-height="1057"
     inkscape:window-x="-8"
     inkscape:window-y="-8"
     inkscape:window-maximized="1"
     inkscape:pagecheckerboard="true" />
  <metadata
     id="metadata5">
    <rdf:RDF>
      <cc:Work
         rdf:about="">
        <dc:format>image/svg+xml</dc:format>
        <dc:type
           rdf:resource="http://purl.org/dc/dcmitype/StillImage" />
        <dc:title></dc:title>
      </cc:Work>
    </rdf:RDF>
  </metadata>
  <g
     inkscape:label="Layer 1"
     inkscape:groupmode="layer"
     id="layer1">
    <g
       id="2014-stars-back">
      <circle
         style="fill:#808080;fill-opacity:1;stroke:none;stroke-width:0.264999;stroke-miterlimit:4;stroke-dasharray:none"
         id="path2045"
         cx="-38.55357"
         cy="52.160713"
         r="10.583333" />
      <use
         id="use2047"
         inkscape:spray-origin="#path2045"
         xlink:href="#path2045"
         transform="matrix(1.6174498,0,0,1.6174498,279.76327,-79.983448)"
         x="0"
         y="0"
         width="100%"
         height="100%"
         style="fill:#808080;fill-opacity:1" />
      <use
         id="use2049"
         inkscape:spray-origin="#path2045"
         xlink:href="#path2045"
         transform="matrix(0.4281486,0,0,0.4281486,245.89903,-72.96476)"
         x="0"
         y="0"
         width="100%"
         height="100%"
         style="fill:#808080;fill-opacity:1" />
      <use
         id="use2051"
         inkscape:spray-origin="#path2045"
         xlink:href="#path2045"
         transform="matrix(1.4476459,0,0,1.4476459,251.31295,-140.6543)"
         x="0"
         y="0"
         width="100%"
         height="100%"
         style="fill:#808080;fill-opacity:1" />
      <use
         id="use2053"
         inkscape:spray-origin="#path2045"
         xlink:href="#path2045"
         transform="matrix(1.6259524,0,0,1.6259524,212.14281,-3.1613381)"
         x="0"
         y="0"
         width="100%"
         height="100%"
         style="fill:#808080;fill-opacity:1" />
      <use
         id="use2055"
         inkscape:spray-origin="#path2045"
         xlink:href="#path2045"
         transform="matrix(0.39068675,0,0,0.39068675,193.39959,13.24468)"
         x="0"
         y="0"
         width="100%"
         height="100%"
         style="fill:#808080;fill-opacity:1" />
      <use
         id="use2057"
         inkscape:spray-origin="#path2045"
         xlink:href="#path2045"
         transform="matrix(0.81329084,0,0,0.81329084,216.32694,-30.525402)"
         x="0"
         y="0"
         width="100%"
         height="100%"
         style="fill:#808080;fill-opacity:1" />
      <use
         id="use2059"
         inkscape:spray-origin="#path2045"
         xlink:href="#path2045"
         transform="matrix(1.1546272,0,0,1.1546272,231.397,46.578298)"
         x="0"
         y="0"
         width="100%"
         height="100%"
         style="fill:#808080;fill-opacity:1" />
      <use
         id="use2061"
         inkscape:spray-origin="#path2045"
         xlink:href="#path2045"
         transform="matrix(0.44805172,0,0,0.44805172,154.61982,123.13633)"
         x="0"
         y="0"
         width="100%"
         height="100%"
         style="fill:#808080;fill-opacity:1" />
      <use
         id="use2063"
         inkscape:spray-origin="#path2045"
         xlink:href="#path2045"
         transform="matrix(0.25641361,0,0,0.25641361,178.67491,103.80408)"
         x="0"
         y="0"
         width="100%"
         height="100%"
         style="fill:#808080;fill-opacity:1" />
      <use
         id="use2065"
         inkscape:spray-origin="#path2045"
         xlink:href="#path2045"
         transform="matrix(0.31392725,0,0,0.31392725,247.5345,160.24761)"
         x="0"
         y="0"
         width="100%"
         height="100%"
         style="fill:#808080;fill-opacity:1" />
      <use
         id="use2067"
         inkscape:spray-origin="#path2045"
         xlink:href="#path2045"
         transform="matrix(0.25031879,0,0,0.25031879,193.87091,125.96469)"
         x="0"
         y="0"
         width="100%"
         height="100%"
         style="fill:#808080;fill-opacity:1" />
      <use
         id="use2069"
         inkscape:spray-origin="#path2045"
         xlink:href="#path2045"
         transform="matrix(1.5004993,0,0,1.5004993,246.65209,123.56037)"
         x="0"
         y="0"
         width="100%"
         height="100%"
         style="fill:#808080;fill-opacity:1" />
      <use
         id="use2071"
         inkscape:spray-origin="#path2045"
         xlink:href="#path2045"
         transform="matrix(0.84179248,0,0,0.84179248,278.72369,174.98479)"
         x="0"
         y="0"
         width="100%"
         height="100%"
         style="fill:#808080;fill-opacity:1" />
      <use
         id="use2073"
         inkscape:spray-origin="#path2045"
         xlink:href="#path2045"
         transform="matrix(0.39526912,0,0,0.39526912,177.12303,158.06819)"
         x="0"
         y="0"
         width="100%"
         height="100%"
         style="fill:#808080;fill-opacity:1" />
      <use
         id="use2075"
         inkscape:spray-origin="#path2045"
         xlink:href="#path2045"
         transform="matrix(1.2534385,0,0,1.2534385,278.80911,198.50094)"
         x="0"
         y="0"
         width="100%"
         height="100%"
         style="fill:#808080;fill-opacity:1" />
      <use
         id="use2077"
         inkscape:spray-origin="#path2045"
         xlink:href="#path2045"
         transform="matrix(1.1996036,0,0,1.1996036,258.44356,170.05972)"
         x="0"
         y="0"
         width="100%"
         height="100%"
         style="fill:#808080;fill-opacity:1" />
      <use
         id="use2079"
         inkscape:spray-origin="#path2045"
         xlink:href="#path2045"
         transform="matrix(1.3519424,0,0,1.3519424,238.35339,233.90347)"
         x="0"
         y="0"
         width="100%"
         height="100%"
         style="fill:#808080;fill-opacity:1" />
      <use
         id="use2081"
         inkscape:spray-origin="#path2045"
         xlink:href="#path2045"
         transform="matrix(1.7119867,0,0,1.7119867,207.36984,248.31638)"
         x="0"
         y="0"
         width="100%"
         height="100%"
         style="fill:#808080;fill-opacity:1" />
      <use
         id="use2083"
         inkscape:spray-origin="#path2045"
         xlink:href="#path2045"
         transform="matrix(1.3410121,0,0,1.3410121,270.1406,263.17549)"
         x="0"
         y="0"
         width="100%"
         height="100%"
         style="fill:#808080;fill-opacity:1" />
      <use
         id="use2085"
         inkscape:spray-origin="#path2045"
         xlink:href="#path2045"
         transform="matrix(0.68520868,0,0,0.68520868,214.57413,307.02641)"
         x="0"
         y="0"
         width="100%"
         height="100%"
         style="fill:#808080;fill-opacity:1" />
      <use
         id="use2087"
         inkscape:spray-origin="#path2045"
         xlink:href="#path2045"
         transform="matrix(1.3990399,0,0,1.3990399,254.94362,322.86024)"
         x="0"
         y="0"
         width="100%"
         height="100%"
         style="fill:#808080;fill-opacity:1" />
      <use
         id="use2125"
         inkscape:spray-origin="#path2045"
         xlink:href="#path2045"
         transform="matrix(1.4637261,0,0,1.4637261,364.03095,-66.573602)"
         x="0"
         y="0"
         width="100%"
         height="100%"
         style="fill:#808080;fill-opacity:1" />
      <use
         id="use2127"
         inkscape:spray-origin="#path2045"
         xlink:href="#path2045"
         transform="matrix(0.42345662,0,0,0.42345662,283.61997,27.611872)"
         x="0"
         y="0"
         width="100%"
         height="100%"
         style="fill:#808080;fill-opacity:1" />
      <use
         id="use2129"
         inkscape:spray-origin="#path2045"
         xlink:href="#path2045"
         transform="matrix(0.45642869,0,0,0.45642869,257.75153,25.008672)"
         x="0"
         y="0"
         width="100%"
         height="100%"
         style="fill:#808080;fill-opacity:1" />
      <use
         id="use2131"
         inkscape:spray-origin="#path2045"
         xlink:href="#path2045"
         transform="matrix(1.4425666,0,0,1.4425666,318.99758,-56.451258)"
         x="0"
         y="0"
         width="100%"
         height="100%"
         style="fill:#808080;fill-opacity:1" />
      <use
         id="use2133"
         inkscape:spray-origin="#path2045"
         xlink:href="#path2045"
         transform="matrix(0.90012658,0,0,0.90012658,281.34252,87.060943)"
         x="0"
         y="0"
         width="100%"
         height="100%"
         style="fill:#808080;fill-opacity:1" />
      <use
         id="use2135"
         inkscape:spray-origin="#path2045"
         xlink:href="#path2045"
         transform="matrix(0.90788012,0,0,0.90788012,340.63986,63.357261)"
         x="0"
         y="0"
         width="100%"
         height="100%"
         style="fill:#808080;fill-opacity:1" />
      <use
         id="use2137"
         inkscape:spray-origin="#path2045"
         xlink:href="#path2045"
         transform="matrix(0.8137413,0,0,0.8137413,374.90684,115.59631)"
         x="0"
         y="0"
         width="100%"
         height="100%"
         style="fill:#808080;fill-opacity:1" />
      <use
         id="use2139"
         inkscape:spray-origin="#path2045"
         xlink:href="#path2045"
         transform="matrix(1.5129354,0,0,1.5129354,417.14006,136.57364)"
         x="0"
         y="0"
         width="100%"
         height="100%"
         style="fill:#808080;fill-opacity:1" />
      <use
         id="use2141"
         inkscape:spray-origin="#path2045"
         xlink:href="#path2045"
         transform="matrix(1.2105875,0,0,1.2105875,333.66978,107.79319)"
         x="0"
         y="0"
         width="100%"
         height="100%"
         style="fill:#808080;fill-opacity:1" />
      <use
         id="use2143"
         inkscape:spray-origin="#path2045"
         xlink:href="#path2045"
         transform="matrix(0.59989227,0,0,0.59989227,315.71409,170.41788)"
         x="0"
         y="0"
         width="100%"
         height="100%"
         style="fill:#808080;fill-opacity:1" />
      <use
         id="use2145"
         inkscape:spray-origin="#path2045"
         xlink:href="#path2045"
         transform="matrix(0.58836437,0,0,0.58836437,367.29895,248.51191)"
         x="0"
         y="0"
         width="100%"
         height="100%"
         style="fill:#808080;fill-opacity:1" />
      <use
         id="use2147"
         inkscape:spray-origin="#path2045"
         xlink:href="#path2045"
         transform="matrix(0.73275687,0,0,0.73275687,349.30725,282.52834)"
         x="0"
         y="0"
         width="100%"
         height="100%"
         style="fill:#808080;fill-opacity:1" />
      <use
         id="use2149"
         inkscape:spray-origin="#path2045"
         xlink:href="#path2045"
         transform="matrix(1.4878215,0,0,1.4878215,374.42276,181.78751)"
         x="0"
         y="0"
         width="100%"
         height="100%"
         style="fill:#808080;fill-opacity:1" />
      <use
         id="use2151"
         inkscape:spray-origin="#path2045"
         xlink:href="#path2045"
         transform="matrix(0.50607014,0,0,0.50607014,297.00642,289.69619)"
         x="0"
         y="0"
         width="100%"
         height="100%"
         style="fill:#808080;fill-opacity:1" />
      <use
         id="use2153"
         inkscape:spray-origin="#path2045"
         xlink:href="#path2045"
         transform="matrix(0.44411551,0,0,0.44411551,478.86002,-82.171283)"
         x="0"
         y="0"
         width="100%"
         height="100%"
         style="fill:#808080;fill-opacity:1" />
      <use
         id="use2155"
         inkscape:spray-origin="#path2045"
         xlink:href="#path2045"
         transform="matrix(1.6136531,0,0,1.6136531,588.55316,-138.53307)"
         x="0"
         y="0"
         width="100%"
         height="100%"
         style="fill:#808080;fill-opacity:1" />
      <use
         id="use2157"
         inkscape:spray-origin="#path2045"
         xlink:href="#path2045"
         transform="matrix(1.0144995,0,0,1.0144995,581.86856,-72.061457)"
         x="0"
         y="0"
         width="100%"
         height="100%"
         style="fill:#808080;fill-opacity:1" />
      <use
         id="use2159"
         inkscape:spray-origin="#path2045"
         xlink:href="#path2045"
         transform="matrix(0.39939521,0,0,0.39939521,538.64194,-20.126685)"
         x="0"
         y="0"
         width="100%"
         height="100%"
         style="fill:#808080;fill-opacity:1" />
      <use
         id="use2161"
         inkscape:spray-origin="#path2045"
         xlink:href="#path2045"
         transform="matrix(0.91950899,0,0,0.91950899,518.96328,37.636465)"
         x="0"
         y="0"
         width="100%"
         height="100%"
         style="fill:#808080;fill-opacity:1" />
      <use
         id="use2163"
         inkscape:spray-origin="#path2045"
         xlink:href="#path2045"
         transform="matrix(1.1630233,0,0,1.1630233,572.22966,27.984506)"
         x="0"
         y="0"
         width="100%"
         height="100%"
         style="fill:#808080;fill-opacity:1" />
      <use
         id="use2165"
         inkscape:spray-origin="#path2045"
         xlink:href="#path2045"
         transform="matrix(0.98749498,0,0,0.98749498,561.29538,80.950847)"
         x="0"
         y="0"
         width="100%"
         height="100%"
         style="fill:#808080;fill-opacity:1" />
      <use
         id="use2167"
         inkscape:spray-origin="#path2045"
         xlink:href="#path2045"
         transform="matrix(1.498761,0,0,1.498761,609.57943,73.600416)"
         x="0"
         y="0"
         width="100%"
         height="100%"
         style="fill:#808080;fill-opacity:1" />
      <use
         id="use2169"
         inkscape:spray-origin="#path2045"
         xlink:href="#path2045"
         transform="matrix(1.0380202,0,0,1.0380202,563.41027,172.52997)"
         x="0"
         y="0"
         width="100%"
         height="100%"
         style="fill:#808080;fill-opacity:1" />
      <use
         id="use2171"
         inkscape:spray-origin="#path2045"
         xlink:href="#path2045"
         transform="matrix(0.85041213,0,0,0.85041213,560.76683,143.60573)"
         x="0"
         y="0"
         width="100%"
         height="100%"
         style="fill:#808080;fill-opacity:1" />
      <use
         id="use2173"
         inkscape:spray-origin="#path2045"
         xlink:href="#path2045"
         transform="matrix(0.53959168,0,0,0.53959168,510.68735,206.88294)"
         x="0"
         y="0"
         width="100%"
         height="100%"
         style="fill:#808080;fill-opacity:1" />
      <use
         id="use2175"
         inkscape:spray-origin="#path2045"
         xlink:href="#path2045"
         transform="matrix(0.64026035,0,0,0.64026035,522.49452,215.90839)"
         x="0"
         y="0"
         width="100%"
         height="100%"
         style="fill:#808080;fill-opacity:1" />
      <use
         id="use2177"
         inkscape:spray-origin="#path2045"
         xlink:href="#path2045"
         transform="matrix(1.0788782,0,0,1.0788782,604.60542,146.00154)"
         x="0"
         y="0"
         width="100%"
         height="100%"
         style="fill:#808080;fill-opacity:1" />
      <use
         id="use2179"
         inkscape:spray-origin="#path2045"
         xlink:href="#path2045"
         transform="matrix(1.0421484,0,0,1.0421484,606.8065,239.44479)"
         x="0"
         y="0"
         width="100%"
         height="100%"
         style="fill:#808080;fill-opacity:1" />
      <use
         id="use2181"
         inkscape:spray-origin="#path2045"
         xlink:href="#path2045"
         transform="matrix(0.36267119,0,0,0.36267119,594.06989,238.69239)"
         x="0"
         y="0"
         width="100%"
         height="100%"
         style="fill:#808080;fill-opacity:1" />
      <use
         id="use2183"
         inkscape:spray-origin="#path2045"
         xlink:href="#path2045"
         transform="matrix(0.44569214,0,0,0.44569214,527.22314,236.72185)"
         x="0"
         y="0"
         width="100%"
         height="100%"
         style="fill:#808080;fill-opacity:1" />
      <use
         id="use2185"
         inkscape:spray-origin="#path2045"
         xlink:href="#path2045"
         transform="matrix(0.36384088,0,0,0.36384088,499.45427,309.06718)"
         x="0"
         y="0"
         width="100%"
         height="100%"
         style="fill:#808080;fill-opacity:1" />
      <use
         id="use2187"
         inkscape:spray-origin="#path2045"
         xlink:href="#path2045"
         transform="matrix(0.35279957,0,0,0.35279957,521.18193,302.54682)"
         x="0"
         y="0"
         width="100%"
         height="100%"
         style="fill:#808080;fill-opacity:1" />
      <use
         id="use2189"
         inkscape:spray-origin="#path2045"
         xlink:href="#path2045"
         transform="matrix(0.4539208,0,0,0.4539208,554.34311,322.49927)"
         x="0"
         y="0"
         width="100%"
         height="100%"
         style="fill:#808080;fill-opacity:1" />
      <use
         id="use2191"
         inkscape:spray-origin="#path2045"
         xlink:href="#path2045"
         transform="matrix(0.6989891,0,0,0.6989891,547.38196,290.00899)"
         x="0"
         y="0"
         width="100%"
         height="100%"
         style="fill:#808080;fill-opacity:1" />
      <use
         id="use2193"
         inkscape:spray-origin="#path2045"
         xlink:href="#path2045"
         transform="matrix(0.68389525,0,0,0.68389525,517.74164,-4.7801921)"
         x="0"
         y="0"
         width="100%"
         height="100%"
         style="fill:#808080;fill-opacity:1" />
      <use
         id="use2195"
         inkscape:spray-origin="#path2045"
         xlink:href="#path2045"
         transform="matrix(1.0250687,0,0,1.0250687,539.81798,-3.7188538)"
         x="0"
         y="0"
         width="100%"
         height="100%"
         style="fill:#808080;fill-opacity:1" />
      <use
         id="use2197"
         inkscape:spray-origin="#path2045"
         xlink:href="#path2045"
         transform="matrix(0.60882133,0,0,0.60882133,551.29955,-4.8235394)"
         x="0"
         y="0"
         width="100%"
         height="100%"
         style="fill:#808080;fill-opacity:1" />
      <use
         id="use2199"
         inkscape:spray-origin="#path2045"
         xlink:href="#path2045"
         transform="matrix(0.47608911,0,0,0.47608911,558.17724,42.111544)"
         x="0"
         y="0"
         width="100%"
         height="100%"
         style="fill:#808080;fill-opacity:1" />
      <use
         id="use2201"
         inkscape:spray-origin="#path2045"
         xlink:href="#path2045"
         transform="matrix(0.87176494,0,0,0.87176494,494.53652,-15.500862)"
         x="0"
         y="0"
         width="100%"
         height="100%"
         style="fill:#808080;fill-opacity:1" />
      <use
         id="use2203"
         inkscape:spray-origin="#path2045"
         xlink:href="#path2045"
         transform="matrix(0.81820836,0,0,0.81820836,60.490239,-109.01985)"
         x="0"
         y="0"
         width="100%"
         height="100%"
         style="fill:#808080;fill-opacity:1" />
      <use
         id="use2205"
         inkscape:spray-origin="#path2045"
         xlink:href="#path2045"
         transform="matrix(1.5319911,0,0,1.5319911,81.393329,-81.805465)"
         x="0"
         y="0"
         width="100%"
         height="100%"
         style="fill:#808080;fill-opacity:1" />
      <use
         id="use2207"
         inkscape:spray-origin="#path2045"
         xlink:href="#path2045"
         transform="matrix(0.85590188,0,0,0.85590188,84.234019,-57.584088)"
         x="0"
         y="0"
         width="100%"
         height="100%"
         style="fill:#808080;fill-opacity:1" />
      <use
         id="use2209"
         inkscape:spray-origin="#path2045"
         xlink:href="#path2045"
         transform="matrix(1.4965721,0,0,1.4965721,78.850447,-36.260787)"
         x="0"
         y="0"
         width="100%"
         height="100%"
         style="fill:#808080;fill-opacity:1" />
      <use
         id="use2211"
         inkscape:spray-origin="#path2045"
         xlink:href="#path2045"
         transform="matrix(0.44718112,0,0,0.44718112,60.744426,-2.4649631)"
         x="0"
         y="0"
         width="100%"
         height="100%"
         style="fill:#808080;fill-opacity:1" />
      <use
         id="use2213"
         inkscape:spray-origin="#path2045"
         xlink:href="#path2045"
         transform="matrix(1.6648351,0,0,1.6648351,102.14203,35.478798)"
         x="0"
         y="0"
         width="100%"
         height="100%"
         style="fill:#808080;fill-opacity:1" />
      <use
         id="use2215"
         inkscape:spray-origin="#path2045"
         xlink:href="#path2045"
         transform="matrix(0.29342274,0,0,0.29342274,59.927257,48.484997)"
         x="0"
         y="0"
         width="100%"
         height="100%"
         style="fill:#808080;fill-opacity:1" />
      <use
         id="use2217"
         inkscape:spray-origin="#path2045"
         xlink:href="#path2045"
         transform="matrix(0.43752092,0,0,0.43752092,30.296932,94.319643)"
         x="0"
         y="0"
         width="100%"
         height="100%"
         style="fill:#808080;fill-opacity:1" />
      <use
         id="use2219"
         inkscape:spray-origin="#path2045"
         xlink:href="#path2045"
         transform="matrix(0.34473691,0,0,0.34473691,20.003597,58.016326)"
         x="0"
         y="0"
         width="100%"
         height="100%"
         style="fill:#808080;fill-opacity:1" />
      <use
         id="use2221"
         inkscape:spray-origin="#path2045"
         xlink:href="#path2045"
         transform="matrix(1.52251,0,0,1.52251,61.061019,83.221766)"
         x="0"
         y="0"
         width="100%"
         height="100%"
         style="fill:#808080;fill-opacity:1" />
      <use
         id="use2223"
         inkscape:spray-origin="#path2045"
         xlink:href="#path2045"
         transform="matrix(1.5205135,0,0,1.5205135,110.05625,97.088065)"
         x="0"
         y="0"
         width="100%"
         height="100%"
         style="fill:#808080;fill-opacity:1" />
      <use
         id="use2225"
         inkscape:spray-origin="#path2045"
         xlink:href="#path2045"
         transform="matrix(0.39162704,0,0,0.39162704,39.280022,136.68958)"
         x="0"
         y="0"
         width="100%"
         height="100%"
         style="fill:#808080;fill-opacity:1" />
      <use
         id="use2227"
         inkscape:spray-origin="#path2045"
         xlink:href="#path2045"
         transform="matrix(0.5521546,0,0,0.5521546,37.923828,205.39981)"
         x="0"
         y="0"
         width="100%"
         height="100%"
         style="fill:#808080;fill-opacity:1" />
      <use
         id="use2229"
         inkscape:spray-origin="#path2045"
         xlink:href="#path2045"
         transform="matrix(0.45254081,0,0,0.45254081,-26.89339,202.51512)"
         x="0"
         y="0"
         width="100%"
         height="100%"
         style="fill:#808080;fill-opacity:1" />
      <use
         id="use2231"
         inkscape:spray-origin="#path2045"
         xlink:href="#path2045"
         transform="matrix(0.98980181,0,0,0.98980181,53.078932,246.62643)"
         x="0"
         y="0"
         width="100%"
         height="100%"
         style="fill:#808080;fill-opacity:1" />
      <use
         id="use2233"
         inkscape:spray-origin="#path2045"
         xlink:href="#path2045"
         transform="matrix(0.6224474,0,0,0.6224474,17.577977,275.65249)"
         x="0"
         y="0"
         width="100%"
         height="100%"
         style="fill:#808080;fill-opacity:1" />
      <use
         id="use2235"
         inkscape:spray-origin="#path2045"
         xlink:href="#path2045"
         transform="matrix(0.45721195,0,0,0.45721195,8.2710483,354.9882)"
         x="0"
         y="0"
         width="100%"
         height="100%"
         style="fill:#808080;fill-opacity:1" />
      <use
         id="use2237"
         inkscape:spray-origin="#path2045"
         xlink:href="#path2045"
         transform="matrix(0.61213493,0,0,0.61213493,-1.6683957,295.13571)"
         x="0"
         y="0"
         width="100%"
         height="100%"
         style="fill:#808080;fill-opacity:1" />
      <use
         id="use2239"
         inkscape:spray-origin="#path2045"
         xlink:href="#path2045"
         transform="matrix(0.52002996,0,0,0.52002996,8.5532851,362.57443)"
         x="0"
         y="0"
         width="100%"
         height="100%"
         style="fill:#808080;fill-opacity:1" />
      <use
         id="use2241"
         inkscape:spray-origin="#path2045"
         xlink:href="#path2045"
         transform="matrix(0.46836475,0,0,0.46836475,58.626928,331.61494)"
         x="0"
         y="0"
         width="100%"
         height="100%"
         style="fill:#808080;fill-opacity:1" />
      <use
         id="use2243"
         inkscape:spray-origin="#path2045"
         xlink:href="#path2045"
         transform="matrix(1.130568,0,0,1.130568,68.781449,266.01508)"
         x="0"
         y="0"
         width="100%"
         height="100%"
         style="fill:#808080;fill-opacity:1" />
      <use
         id="use2474"
         inkscape:spray-origin="#path2045"
         xlink:href="#use2193"
         transform="matrix(0.53566129,0,0,0.53566129,237.13675,144.03447)"
         x="0"
         y="0"
         width="100%"
         height="100%"
         style="fill:#808080;fill-opacity:1" />
      <use
         id="use2476"
         inkscape:spray-origin="#path2045"
         xlink:href="#use2193"
         transform="matrix(0.74426743,0,0,0.74426743,94.401806,66.485164)"
         x="0"
         y="0"
         width="100%"
         height="100%"
         style="fill:#808080;fill-opacity:1" />
      <use
         id="use2478"
         inkscape:spray-origin="#path2045"
         xlink:href="#use2193"
         transform="matrix(1.2091737,0,0,1.2091737,-111.6054,113.99677)"
         x="0"
         y="0"
         width="100%"
         height="100%"
         style="fill:#808080;fill-opacity:1" />
      <use
         id="use2480"
         inkscape:spray-origin="#path2045"
         xlink:href="#use2193"
         transform="matrix(0.90381219,0,0,0.90381219,60.649526,174.46185)"
         x="0"
         y="0"
         width="100%"
         height="100%"
         style="fill:#808080;fill-opacity:1" />
      <use
         id="use2482"
         inkscape:spray-origin="#path2045"
         xlink:href="#use2193"
         transform="matrix(0.51716323,0,0,0.51716323,170.06583,152.24293)"
         x="0"
         y="0"
         width="100%"
         height="100%"
         style="fill:#808080;fill-opacity:1" />
      <use
         id="use2484"
         inkscape:spray-origin="#path2045"
         xlink:href="#use2193"
         transform="matrix(0.38394505,0,0,0.38394505,268.78755,127.11425)"
         x="0"
         y="0"
         width="100%"
         height="100%"
         style="fill:#808080;fill-opacity:1" />
      <use
         id="use2486"
         inkscape:spray-origin="#path2045"
         xlink:href="#use2193"
         transform="matrix(0.53135303,0,0,0.53135303,189.09624,147.92028)"
         x="0"
         y="0"
         width="100%"
         height="100%"
         style="fill:#808080;fill-opacity:1" />
      <use
         id="use2488"
         inkscape:spray-origin="#path2045"
         xlink:href="#use2193"
         transform="matrix(0.33092317,0,0,0.33092317,395.23042,211.84694)"
         x="0"
         y="0"
         width="100%"
         height="100%"
         style="fill:#808080;fill-opacity:1" />
      <use
         id="use2490"
         inkscape:spray-origin="#path2045"
         xlink:href="#use2193"
         transform="matrix(0.99137183,0,0,0.99137183,35.654352,174.53814)"
         x="0"
         y="0"
         width="100%"
         height="100%"
         style="fill:#808080;fill-opacity:1" />
      <use
         id="use2492"
         inkscape:spray-origin="#path2045"
         xlink:href="#use2193"
         transform="matrix(0.97591882,0,0,0.97591882,79.664538,146.7248)"
         x="0"
         y="0"
         width="100%"
         height="100%"
         style="fill:#808080;fill-opacity:1" />
    </g>
  </g>
</svg>
